# xmcd
#
# Track frame offsets: 
#        150
#        15769
#        27961
#        42046
#        51547
#        63910
#        74364
#        89228
#
# Disc length: 1355 seconds
#
# Revision: 0
# Processed by: cddbd v1.5.2PL0 Copyright (c) Steve Scherf et al.
# Submitted via: ExactAudioCopy v0.99pb4
#
DISCID=66054908
DTITLE=Various Artist - Lord Calvert Country Classics
DYEAR=1992
DGENRE=Country
TTITLE0=Billy Dean - Young Man
TTITLE1=Tanya Tucker - Strong Enough to Bend
TTITLE2=Larry Gatlin and The Gatlin Brothers - Houston (Means I'm One Da
TTITLE2=y Closer to You)
TTITLE3=Geroge Jones - The Race Is On
TTITLE4=Lee Greenwood - Holdin' a Good Hand
TTITLE5=Kathy Mattea - Burnin' Old Memories
TTITLE6=Pirates of the Mississippi - Til I'm Holding You Again
TTITLE7=Merle Haggard - Sing Me Back Home
EXTD=
EXTT0=
EXTT1=
EXTT2=
EXTT3=
EXTT4=
EXTT5=
EXTT6=
EXTT7=
PLAYORDER=
